<mxfile host="app.diagrams.net" modified="2022-01-21T03:24:59.598Z" agent="5.0 (Windows NT 10.0; Win64; x64) AppleWebKit/537.36 (KHTML, like Gecko) Chrome/97.0.4692.71 Safari/537.36" etag="JIsmrtlmJ20EDKhAkqkh" version="16.2.6" type="github">
  <diagram id="yux-Q8cDg1090Iv5K4Fr" name="Page-1">
    <mxGraphModel dx="1209" dy="741" grid="1" gridSize="10" guides="1" tooltips="1" connect="1" arrows="1" fold="1" page="1" pageScale="1" pageWidth="827" pageHeight="1169" math="0" shadow="0">
      <root>
        <mxCell id="0" />
        <mxCell id="1" parent="0" />
        <mxCell id="poA4AB7sZZYJ1vnn_bwK-1" value="" style="whiteSpace=wrap;html=1;imageAspect=1;imageWidth=24;imageHeight=24;fillOpacity=100;resizeHeight=0;resizeWidth=0;resizable=1;" vertex="1" parent="1">
          <mxGeometry x="99" y="110" width="630" height="390" as="geometry" />
        </mxCell>
        <mxCell id="poA4AB7sZZYJ1vnn_bwK-4" value="基本" style="rounded=0;whiteSpace=wrap;html=1;fillColor=#fff2cc;strokeColor=#d6b656;" vertex="1" parent="1">
          <mxGeometry x="250" y="150" width="120" height="40" as="geometry" />
        </mxCell>
        <mxCell id="poA4AB7sZZYJ1vnn_bwK-5" value="高级" style="rounded=0;whiteSpace=wrap;html=1;" vertex="1" parent="1">
          <mxGeometry x="390" y="150" width="120" height="40" as="geometry" />
        </mxCell>
        <mxCell id="poA4AB7sZZYJ1vnn_bwK-7" value="" style="rounded=0;whiteSpace=wrap;html=1;" vertex="1" parent="1">
          <mxGeometry x="534" y="150" width="120" height="40" as="geometry" />
        </mxCell>
        <mxCell id="poA4AB7sZZYJ1vnn_bwK-8" value="" style="whiteSpace=wrap;html=1;imageAspect=1;imageWidth=24;imageHeight=24;fillOpacity=100;resizeHeight=0;resizeWidth=0;resizable=1;" vertex="1" parent="1">
          <mxGeometry x="99" y="540" width="630" height="390" as="geometry" />
        </mxCell>
        <mxCell id="poA4AB7sZZYJ1vnn_bwK-9" value="基本" style="rounded=0;whiteSpace=wrap;html=1;" vertex="1" parent="1">
          <mxGeometry x="250" y="580" width="120" height="40" as="geometry" />
        </mxCell>
        <mxCell id="poA4AB7sZZYJ1vnn_bwK-10" value="高级" style="rounded=0;whiteSpace=wrap;html=1;fillColor=#fff2cc;strokeColor=#d6b656;" vertex="1" parent="1">
          <mxGeometry x="390" y="580" width="120" height="40" as="geometry" />
        </mxCell>
        <mxCell id="poA4AB7sZZYJ1vnn_bwK-11" value="" style="rounded=0;whiteSpace=wrap;html=1;" vertex="1" parent="1">
          <mxGeometry x="534" y="580" width="120" height="40" as="geometry" />
        </mxCell>
        <mxCell id="poA4AB7sZZYJ1vnn_bwK-12" value="" style="whiteSpace=wrap;html=1;imageAspect=1;imageWidth=24;imageHeight=24;fillOpacity=100;resizeHeight=0;resizeWidth=0;resizable=1;" vertex="1" parent="1">
          <mxGeometry x="99" y="980" width="630" height="390" as="geometry" />
        </mxCell>
        <mxCell id="poA4AB7sZZYJ1vnn_bwK-13" value="基本" style="rounded=0;whiteSpace=wrap;html=1;" vertex="1" parent="1">
          <mxGeometry x="250" y="1020" width="120" height="40" as="geometry" />
        </mxCell>
        <mxCell id="poA4AB7sZZYJ1vnn_bwK-14" value="高级" style="rounded=0;whiteSpace=wrap;html=1;" vertex="1" parent="1">
          <mxGeometry x="390" y="1020" width="120" height="40" as="geometry" />
        </mxCell>
        <mxCell id="poA4AB7sZZYJ1vnn_bwK-15" value="设置" style="rounded=0;whiteSpace=wrap;html=1;fillColor=#fff2cc;strokeColor=#d6b656;" vertex="1" parent="1">
          <mxGeometry x="534" y="1020" width="120" height="40" as="geometry" />
        </mxCell>
      </root>
    </mxGraphModel>
  </diagram>
</mxfile>
